<svg id="Component_22_1" data-name="Component 22 – 1" xmlns="http://www.w3.org/2000/svg" width="133.272" height="59.999" viewBox="0 0 133.272 59.999">
  <path id="Path_64" data-name="Path 64" d="M215.192,595.737h3.187a1.6,1.6,0,0,0-3.187,0m4.031.647h-4.031a1.683,1.683,0,0,0,1.8,1.453,1.854,1.854,0,0,0,1.434-.6l.5.581a2.707,2.707,0,0,1-4.63-1.734,2.432,2.432,0,0,1,2.493-2.531,2.4,2.4,0,0,1,2.456,2.559c0,.075-.01.187-.019.272" transform="translate(-191.801 -540.387)" fill="#f27526"/>
  <path id="Path_65" data-name="Path 65" d="M236.862,595.709v2.859h-.9v-2.756c0-.975-.469-1.453-1.284-1.453a1.443,1.443,0,0,0-1.491,1.65v2.559h-.9v-2.756c0-.975-.469-1.453-1.284-1.453a1.442,1.442,0,0,0-1.49,1.65v2.559h-.9V593.6h.863v.741a2.013,2.013,0,0,1,1.715-.787,1.838,1.838,0,0,1,1.724.918,2.239,2.239,0,0,1,1.912-.918,1.9,1.9,0,0,1,2.034,2.156" transform="translate(-199.926 -540.387)" fill="#f27526"/>
  <path id="Path_66" data-name="Path 66" d="M255.753,596.084a1.675,1.675,0,1,0-1.678,1.753,1.642,1.642,0,0,0,1.678-1.753m.909,0a2.414,2.414,0,0,1-2.512,2.54,2.122,2.122,0,0,1-1.734-.806v2.568h-.9V593.6h.863v.787a2.114,2.114,0,0,1,1.771-.835,2.411,2.411,0,0,1,2.512,2.531" transform="translate(-212.922 -540.387)" fill="#f27526"/>
  <path id="Path_67" data-name="Path 67" d="M268.965,593.553v.872a1.565,1.565,0,0,0-.206-.01,1.482,1.482,0,0,0-1.565,1.678v2.474h-.9V593.6h.863v.834a1.9,1.9,0,0,1,1.809-.881" transform="translate(-221.305 -540.387)" fill="#f27526"/>
  <path id="Path_68" data-name="Path 68" d="M274.755,595.737h3.187a1.6,1.6,0,0,0-3.187,0m4.031.647h-4.031a1.683,1.683,0,0,0,1.8,1.453,1.855,1.855,0,0,0,1.434-.6l.5.581a2.707,2.707,0,0,1-4.63-1.734,2.433,2.433,0,0,1,2.493-2.531,2.4,2.4,0,0,1,2.456,2.559c0,.075-.01.187-.019.272" transform="translate(-225.596 -540.387)" fill="#f27526"/>
  <path id="Path_69" data-name="Path 69" d="M288.016,595.737H291.2a1.6,1.6,0,0,0-3.187,0m4.031.647h-4.031a1.683,1.683,0,0,0,1.8,1.453,1.856,1.856,0,0,0,1.434-.6l.5.581a2.707,2.707,0,0,1-4.63-1.734,2.433,2.433,0,0,1,2.493-2.531,2.4,2.4,0,0,1,2.456,2.559c0,.075-.009.187-.019.272" transform="translate(-233.121 -540.387)" fill="#f27526"/>
  <path id="Path_70" data-name="Path 70" d="M306.152,595.709v2.859h-.9v-2.756c0-.975-.488-1.453-1.34-1.453a1.475,1.475,0,0,0-1.575,1.65v2.559h-.9V593.6h.863v.75a2.129,2.129,0,0,1,1.79-.8,1.924,1.924,0,0,1,2.062,2.156" transform="translate(-241.246 -540.387)" fill="#f27526"/>
  <path id="Path_71" data-name="Path 71" d="M319.452,593.539a1.675,1.675,0,1,0-1.668,1.753,1.635,1.635,0,0,0,1.668-1.753m.891-4.47v6.954h-.863v-.787a2.1,2.1,0,0,1-1.771.844,2.536,2.536,0,0,1,0-5.071,2.114,2.114,0,0,1,1.734.8v-2.737Z" transform="translate(-249.053 -537.842)" fill="#f27526"/>
  <path id="Path_72" data-name="Path 72" d="M330.827,590.871h.9v4.968h-.9Zm-.16-1.537a.593.593,0,0,1,.61-.59.586.586,0,1,1-.61.59" transform="translate(-257.83 -537.656)" fill="#f27526"/>
  <path id="Path_73" data-name="Path 73" d="M345.329,595.709v2.859h-.9v-2.756c0-.975-.469-1.453-1.284-1.453a1.442,1.442,0,0,0-1.49,1.65v2.559h-.9v-2.756c0-.975-.469-1.453-1.284-1.453a1.442,1.442,0,0,0-1.49,1.65v2.559h-.9V593.6h.862v.741a2.013,2.013,0,0,1,1.715-.787,1.838,1.838,0,0,1,1.724.918,2.239,2.239,0,0,1,1.912-.918,1.9,1.9,0,0,1,2.034,2.156" transform="translate(-261.471 -540.387)" fill="#f27526"/>
  <path id="Path_74" data-name="Path 74" d="M359.886,595.737h3.187a1.6,1.6,0,0,0-3.187,0m4.031.647h-4.031a1.683,1.683,0,0,0,1.8,1.453,1.855,1.855,0,0,0,1.434-.6l.5.581a2.707,2.707,0,0,1-4.63-1.734,2.433,2.433,0,0,1,2.493-2.531,2.4,2.4,0,0,1,2.456,2.559c0,.075-.01.187-.019.272" transform="translate(-273.899 -540.387)" fill="#f27526"/>
  <path id="Path_75" data-name="Path 75" d="M378.023,595.709v2.859h-.9v-2.756c0-.975-.487-1.453-1.339-1.453a1.476,1.476,0,0,0-1.575,1.65v2.559h-.9V593.6h.862v.75a2.13,2.13,0,0,1,1.79-.8,1.925,1.925,0,0,1,2.063,2.156" transform="translate(-282.026 -540.387)" fill="#f27526"/>
  <path id="Path_76" data-name="Path 76" d="M389.922,596.912a1.7,1.7,0,0,1-1.087.347,1.418,1.418,0,0,1-1.575-1.556v-2.728h-.844v-.74h.844v-1.088h.9v1.088h1.425v.74H388.16v2.69a.732.732,0,0,0,.778.834,1.135,1.135,0,0,0,.7-.235Z" transform="translate(-289.463 -539.021)" fill="#f27526"/>
  <path id="Path_77" data-name="Path 77" d="M399.837,596.084a1.675,1.675,0,1,0-1.668,1.753,1.63,1.63,0,0,0,1.668-1.753m-4.255,0a2.583,2.583,0,1,1,2.587,2.54,2.472,2.472,0,0,1-2.587-2.54" transform="translate(-294.664 -540.387)" fill="#f27526"/>
  <path id="Path_78" data-name="Path 78" d="M408.951,598.042l.375-.713a3.187,3.187,0,0,0,1.743.516c.835,0,1.181-.253,1.181-.675,0-1.115-3.14-.15-3.14-2.128,0-.89.8-1.491,2.071-1.491a3.619,3.619,0,0,1,1.809.45l-.385.713a2.594,2.594,0,0,0-1.434-.394c-.788,0-1.172.291-1.172.684,0,1.172,3.149.216,3.149,2.146,0,.9-.825,1.472-2.146,1.472a3.586,3.586,0,0,1-2.053-.581" transform="translate(-302.248 -540.385)" fill="#f27526"/>
  <path id="Path_79" data-name="Path 79" d="M178.047,501.672c-.058-1.853-1.389-2.432-2.952-2.432-1.621,0-2.779.927-2.779,2.142,0,1.737,1.563,2.605,6.021,3.763,7.642,2.026,10.132,5.095,10.132,9.785,0,6.716-5.79,10.942-13.084,10.942-7.237,0-12.39-4.111-13.084-10.653h9.553a3.315,3.315,0,0,0,3.647,2.953c1.679,0,3.358-.984,3.358-2.49,0-1.794-1.1-2.721-5.9-4.226-8.106-2.49-10.248-5.674-10.248-9.437,0-6.369,5.963-10.479,12.448-10.479,6.947,0,11.868,3.822,12.331,10.132Z" transform="translate(-162.299 -482.504)" fill="#0d1a26"/>
  <path id="Path_80" data-name="Path 80" d="M251.865,505.03a7.393,7.393,0,0,0-7.179-4.516c-4.4,0-7.41,3.647-7.41,8.163,0,4.689,3.184,8.164,7.642,8.164a7.334,7.334,0,0,0,6.947-4.285h9.784a17.256,17.256,0,0,1-34.042-3.937,16.878,16.878,0,0,1,16.848-17.079c8.453,0,15.342,5.327,17.137,13.49Z" transform="translate(-199.356 -482.504)" fill="#0d1a26"/>
  <path id="Path_81" data-name="Path 81" d="M351.262,524.772V492.64h9.032v3.416h.116c1.679-3.416,4.342-4.516,8.047-4.516v9.669c-5.732.058-7.584,2.2-7.584,5.847v17.716Z" transform="translate(-269.516 -482.504)" fill="#0d1a26"/>
  <path id="Path_82" data-name="Path 82" d="M416.413,505.146a7.587,7.587,0,0,0-14.589,0Zm-14.705,6.484c.521,3.647,3.589,6.079,7.526,6.079a6.756,6.756,0,0,0,5.847-3.01h9.843c-3.069,7.005-8.916,11.116-15.69,11.116a17.011,17.011,0,0,1-17.021-17.021c0-9.263,7.411-17.253,16.848-17.253,9.61,0,16.963,7.585,16.963,17.542a12.255,12.255,0,0,1-.232,2.548Z" transform="translate(-292.752 -482.504)" fill="#0d1a26"/>
  <path id="Path_83" data-name="Path 83" d="M315.8,499.572v26.759h9.61V494.288Z" transform="translate(-249.395 -484.062)" fill="#0d1a26"/>
  <path id="Path_84" data-name="Path 84" d="M331.953,472.764v-2.112h-9.611v7.295h.184Z" transform="translate(-253.108 -470.652)" fill="#f27526"/>
</svg>
